<svg version="1.1" id="Layer_1" xmlns="http://www.w3.org/2000/svg" xmlns:xlink="http://www.w3.org/1999/xlink" x="0px" y="0px"
	 width="100%" viewBox="0 0 1024 1024" enable-background="new 0 0 1024 1024" xml:space="preserve">
<path fill="#000000" opacity="1.000000" stroke="none" 
	d="
M653.578857,533.420410 
	C665.151245,542.607361 677.008362,550.569153 691.180481,554.324768 
	C694.233215,555.133667 697.348206,555.708191 700.435547,556.386108 
	C702.389587,556.815186 703.802124,556.263916 705.257385,554.699158 
	C710.765686,548.776367 715.572449,547.741150 722.639343,551.533264 
	C726.660217,553.690918 729.807800,553.110229 733.247803,550.714172 
	C740.551270,545.627136 745.594666,538.669434 749.939392,531.083801 
	C754.101868,523.816345 758.856506,517.007690 765.438660,511.670471 
	C768.570251,509.131226 772.031250,507.139160 775.815674,505.751526 
	C787.657166,501.409576 798.008545,505.058594 804.584167,515.870422 
	C812.149780,528.310059 811.786804,541.583069 808.033508,554.908142 
	C805.600220,563.546814 802.050903,571.865173 799.218262,580.398987 
	C795.590881,591.326782 800.538635,597.337097 811.940674,596.324829 
	C818.735718,595.721497 825.559692,595.078857 832.341614,596.649658 
	C839.291931,598.259583 843.177185,602.988831 843.342834,610.141846 
	C843.633911,622.706665 836.595947,632.565918 823.919983,638.325012 
	C817.758850,641.124268 811.908752,644.642395 806.054810,648.068970 
	C803.051147,649.827148 801.786438,651.964600 803.907654,655.875732 
	C811.695496,670.234924 813.810669,685.661011 810.845825,701.688843 
	C809.721924,707.764709 805.468018,711.941650 800.654785,715.364441 
	C792.542480,721.133362 783.262329,723.651672 773.435669,724.144043 
	C768.449280,724.393921 763.381653,724.673523 758.455444,724.076172 
	C751.438904,723.225159 744.920776,724.820862 738.437012,726.883362 
	C735.785278,727.726868 733.548706,727.869690 731.604736,725.696106 
	C726.659363,720.166626 720.275208,716.960938 713.317993,715.083252 
	C699.497681,711.353149 685.646057,707.553711 671.095276,708.253418 
	C665.532715,708.520935 660.164246,709.605347 655.426208,712.707642 
	C648.543579,717.214294 648.175903,723.971802 654.560974,729.210754 
	C661.974365,735.293457 671.175903,735.554443 680.053589,736.674011 
	C687.183350,737.573242 694.257812,738.419006 700.669983,742.084167 
	C704.304504,744.161621 706.258545,746.901245 706.387939,751.265503 
	C706.779907,764.487549 698.966858,772.750916 688.995361,779.118774 
	C660.951599,797.027588 631.548523,796.838318 601.544739,784.497131 
	C588.984558,779.330811 577.735474,771.904236 566.639099,764.165466 
	C551.733398,753.769714 536.692200,743.527588 518.743530,738.860840 
	C515.522827,738.023499 512.272339,737.275024 508.905701,737.277527 
	C502.862610,737.281921 500.472595,740.919189 502.899536,746.394714 
	C504.176575,749.275879 505.846741,751.965271 506.467255,755.155151 
	C507.907043,762.557373 503.088806,768.880188 495.565063,769.286804 
	C489.251007,769.627991 483.882721,766.969788 478.677917,763.919556 
	C463.449402,754.995300 452.041107,741.884460 440.688660,728.783508 
	C423.330597,708.752075 407.463776,687.519836 391.291779,666.541443 
	C388.557617,662.994629 386.526733,661.928345 382.432617,664.689087 
	C373.244446,670.884949 363.434052,670.923279 353.435211,666.401550 
	C348.636780,664.231506 347.144470,665.077026 346.246033,670.057434 
	C343.423126,685.706116 331.050385,693.227112 315.529572,688.719849 
	C307.428711,686.367371 300.925385,681.586365 295.394196,675.364990 
	C293.290833,672.999207 291.425385,670.399170 289.158966,668.208557 
	C287.505585,666.610413 286.243713,663.486328 283.162537,664.847046 
	C280.492462,666.026245 281.272308,668.866394 281.266235,671.104492 
	C281.251404,676.544189 280.086609,681.624023 277.520111,686.461975 
	C272.908478,695.155090 265.598907,698.858459 255.935333,696.641541 
	C251.359665,695.591919 248.544235,696.341858 247.536011,701.368103 
	C243.940643,719.291626 225.566238,727.425842 207.327423,714.085876 
	C192.736633,703.413879 185.988770,688.061951 183.916626,670.532898 
	C180.090164,638.163513 192.016510,612.477844 217.774902,593.077820 
	C242.295624,574.609924 263.386414,553.214172 277.506195,525.577820 
	C283.776642,513.304749 287.264465,500.112000 290.547699,486.846649 
	C291.386200,483.458588 290.191589,480.224304 289.279510,477.041504 
	C282.355682,452.879761 278.513489,428.221436 278.942627,403.110504 
	C279.683807,359.738556 294.080688,321.964386 326.392365,291.946411 
	C348.026398,271.848114 373.576782,259.799103 402.605896,255.052704 
	C436.985565,249.431458 469.982178,253.828659 501.274170,269.419159 
	C535.895386,286.668396 559.218689,314.052094 573.014954,349.905243 
	C579.998840,368.054688 583.236572,387.088684 586.241089,406.162384 
	C587.572327,414.613922 588.625916,415.232849 596.376953,411.797546 
	C618.208069,402.121826 633.709167,385.443634 647.143555,366.404572 
	C656.353271,353.352570 664.376892,339.275024 676.756653,328.820831 
	C693.225159,314.913788 712.324341,308.787506 733.857117,312.016693 
	C746.696045,313.942047 755.695923,322.727356 756.425171,333.300110 
	C756.844055,339.373444 755.088013,344.729858 750.551208,349.117950 
	C746.568787,352.969971 741.896667,355.888153 737.585022,359.289368 
	C734.428284,361.779480 731.537964,364.900391 732.841125,368.925781 
	C734.245361,373.263184 738.595093,374.058533 742.809753,373.880981 
	C751.490112,373.515381 760.113037,373.608643 768.638306,375.669342 
	C789.332703,380.671509 804.028381,399.037994 803.197266,419.000366 
	C802.471497,436.431915 790.289612,445.870819 773.114807,442.659210 
	C763.893127,440.934814 755.528320,436.407501 746.266541,434.940430 
	C742.173706,434.292145 737.766541,433.077820 734.682556,436.897064 
	C733.111877,438.842133 737.474915,444.189850 742.802673,446.478699 
	C748.912903,449.103760 755.253906,451.185822 761.438293,453.645569 
	C768.535767,456.468475 775.047485,460.018311 777.989624,467.787201 
	C781.580994,477.270477 777.881714,486.908264 768.743286,491.381561 
	C760.500488,495.416443 751.520874,496.467407 742.574707,497.238800 
	C712.211121,499.856964 682.531189,505.238220 654.584717,518.028320 
	C653.070312,518.721436 651.500610,519.309448 650.038574,520.098328 
	C645.638184,522.472717 645.165833,525.205994 648.562927,528.757202 
	C650.057373,530.319458 651.713989,531.726624 653.578857,533.420410 
M543.353821,318.119781 
	C536.314331,308.746155 528.333923,300.291046 518.994812,293.161682 
	C486.188599,268.117859 448.928619,260.468811 408.620361,265.169586 
	C353.744049,271.569275 309.218964,310.534149 295.188965,363.929199 
	C287.300812,393.949768 288.741425,424.151001 294.744019,453.999664 
	C305.559937,507.783508 326.105713,557.756836 357.094543,603.233032 
	C375.498291,630.240662 395.783875,655.832947 416.099304,681.398193 
	C432.578217,702.135437 448.742950,723.151978 467.728607,741.739441 
	C473.219177,747.114868 479.208710,751.928955 486.087433,755.447571 
	C488.320953,756.590027 490.672089,758.257935 493.820465,756.780884 
	C493.764008,751.998291 490.535278,748.439636 489.260834,744.218628 
	C486.111237,733.787231 491.405670,726.048645 502.210510,725.707703 
	C505.694244,725.597656 509.174438,725.558899 512.662964,726.233643 
	C530.479919,729.679932 546.358337,737.571594 561.376526,747.394226 
	C574.463806,755.954102 586.621277,765.974609 600.995422,772.502808 
	C625.133362,783.465332 649.580139,786.074280 674.410828,774.919922 
	C681.962646,771.527405 688.612305,766.797668 693.018433,759.555725 
	C696.173523,754.370178 694.764771,751.021545 688.908630,749.534180 
	C686.499207,748.922241 683.998596,748.650757 681.528809,748.298706 
	C671.171631,746.822144 660.607727,746.188965 651.230103,740.774109 
	C643.548584,736.338684 637.976868,730.043396 638.011414,720.946533 
	C638.046326,711.735962 644.000061,705.791687 651.836975,701.659851 
	C663.869751,695.315796 676.561768,695.814758 689.367554,698.200500 
	C711.440308,702.312744 732.886841,709.473816 755.245422,712.123413 
	C766.304382,713.433960 777.572571,714.472778 788.219482,709.739929 
	C801.739380,703.730103 804.073425,690.896729 793.700378,680.264832 
	C786.816956,673.209717 778.128784,668.943176 769.380249,664.790710 
	C761.707336,661.148804 753.990723,657.593018 746.398438,653.789429 
	C742.361145,651.766724 738.623596,649.184387 736.306824,645.102478 
	C732.306946,638.054993 735.067932,631.192261 742.839600,629.031982 
	C746.543823,628.002319 750.306030,627.591675 754.204590,628.242676 
	C769.660583,630.823730 785.169434,632.796021 800.907959,631.726562 
	C807.266541,631.294556 813.488525,630.246277 819.310120,627.598206 
	C824.967468,625.024963 829.476807,621.131592 831.367249,614.982422 
	C832.975037,609.752808 831.194641,607.200439 825.794067,607.149658 
	C821.649536,607.110718 817.498657,607.648865 813.352173,607.952637 
	C798.152344,609.066406 782.246460,601.199219 787.680237,580.126953 
	C790.251648,570.155212 794.020630,560.498169 796.996948,550.623230 
	C799.776611,541.400513 799.513916,532.176697 795.557617,523.302429 
	C792.584106,516.632996 786.783569,514.234863 779.927490,516.716248 
	C774.642456,518.628967 770.151489,521.859741 766.909668,526.461975 
	C762.787842,532.313293 758.953369,538.367371 755.012329,544.345520 
	C746.101746,557.861633 734.128662,566.654663 717.632507,568.171082 
	C704.467468,569.381104 691.746033,567.213135 679.475952,562.362427 
	C662.070435,555.481445 647.755859,544.202881 635.065613,530.732117 
	C632.412231,527.915527 630.001221,527.224609 626.322754,528.554810 
	C618.188416,531.496277 609.944275,534.160278 601.655701,536.639099 
	C596.903381,538.060425 592.141846,539.795044 586.892944,539.959473 
	C587.225891,538.199646 588.245056,537.950317 589.156982,537.576782 
	C607.051819,530.246643 624.387451,521.716675 641.654785,513.046387 
	C671.777283,497.921265 703.595642,489.124908 737.237854,486.528625 
	C745.763245,485.870667 754.633545,485.773438 762.551392,481.644043 
	C769.331848,478.107819 769.658508,471.840118 763.389404,467.502960 
	C760.622986,465.589081 757.456909,464.503235 754.316467,463.381531 
	C749.770996,461.757996 745.133301,460.344086 740.712585,458.430481 
	C733.359558,455.247528 727.067566,450.690613 723.777100,443.012390 
	C720.434265,435.211975 723.623047,427.798828 731.492004,424.633057 
	C737.967773,422.027802 744.547363,422.139893 751.082764,424.104156 
	C758.252319,426.259033 765.275330,428.907013 772.459839,431.005951 
	C785.862671,434.921509 792.981567,429.094269 791.826599,415.216034 
	C790.809753,402.997711 784.481995,394.345642 773.378479,389.361237 
	C763.845947,385.082092 753.732056,384.662689 743.498169,385.738922 
	C731.794312,386.969696 720.853333,391.049133 709.838562,394.836212 
	C705.590759,396.296753 701.532410,396.331421 698.326416,392.766388 
	C695.116699,389.197266 695.731689,385.079773 697.402100,381.034515 
	C700.211060,374.232178 705.083801,369.020416 710.520020,364.261505 
	C719.207642,356.656342 729.411072,351.176025 738.574646,344.244263 
	C742.390747,341.357605 745.871643,337.916077 744.673950,332.558655 
	C743.505127,327.330322 738.975403,325.561401 734.447266,324.085297 
	C733.502319,323.777222 732.525391,323.489563 731.542786,323.385834 
	C710.477112,321.161591 692.429504,327.046936 678.147949,343.187836 
	C669.723389,352.709167 663.031982,363.483612 655.766846,373.841522 
	C642.894775,392.193481 627.939575,408.401306 607.921997,419.089691 
	C584.153442,431.780884 558.658569,434.560730 532.252747,431.231201 
	C531.272156,431.107574 530.219543,430.930847 530.330811,429.183868 
	C538.885864,427.220154 547.924438,426.894379 557.199341,423.776215 
	C552.229553,420.904755 547.114929,421.238922 542.994995,418.359558 
	C545.144470,416.800720 547.195923,417.159943 549.147156,417.118530 
	C556.309937,416.966614 563.479675,416.654816 570.635437,416.841064 
	C575.072388,416.956573 576.249329,415.066162 575.568970,411.119080 
	C574.580383,405.383942 573.581238,399.649536 572.692322,393.898468 
	C568.494019,366.736206 560.410034,341.075317 543.353821,318.119781 
M329.980804,572.451111 
	C317.372833,550.478699 307.699707,527.169861 298.740082,502.249786 
	C295.455292,510.500580 292.809082,517.630981 289.806152,524.607849 
	C275.516113,557.808472 251.076645,582.465576 222.512146,603.416565 
	C193.854095,624.436218 185.690414,662.734436 203.908844,693.278137 
	C207.527100,699.344238 211.823334,704.852234 218.297546,708.179016 
	C225.867722,712.068970 232.629349,709.506897 235.726227,701.628967 
	C238.306747,695.064575 238.367477,688.260071 237.203735,681.465576 
	C236.038040,674.659729 234.467499,667.923218 233.018265,660.883606 
	C235.586960,661.586487 235.903702,663.601440 236.776566,665.100098 
	C241.108810,672.538086 246.367645,679.123901 253.782806,683.725525 
	C260.846863,688.109192 266.285736,686.057068 268.853638,678.169861 
	C270.395874,673.432861 269.412567,668.578186 269.662354,663.782715 
	C269.952972,658.203796 271.192749,652.825256 276.685974,650.389221 
	C282.170105,647.957214 286.750610,651.145935 290.570557,654.787354 
	C294.903229,658.917480 298.940887,663.368591 302.959808,667.813049 
	C307.176971,672.476807 312.001953,676.155029 318.055878,678.062073 
	C329.144196,681.555054 337.065338,674.421509 335.017792,663.053040 
	C333.265930,653.326233 328.535156,644.978333 323.626465,636.663025 
	C321.982239,633.877747 319.806885,631.337708 319.121643,627.670532 
	C322.103058,627.322815 323.955811,628.846619 325.843048,630.062256 
	C332.318970,634.233765 337.945862,639.428772 343.367218,644.858276 
	C347.614990,649.112427 351.993073,653.208313 357.430084,655.942993 
	C365.179962,659.840942 372.698730,659.085693 378.407837,654.171814 
	C380.319183,652.526733 380.618713,651.174133 379.168640,649.131409 
	C376.472229,645.332764 373.964172,641.401001 371.299896,637.578918 
	C356.724457,616.669739 342.597839,595.476746 329.980804,572.451111 
M759.532776,646.961060 
	C763.437378,648.774170 767.240662,650.873230 771.280396,652.305237 
	C774.242676,653.355408 777.599854,652.930237 778.651855,649.352966 
	C779.675049,645.873535 776.848022,644.823975 774.077148,644.229675 
	C769.538086,643.256042 765.013916,642.176575 760.435242,641.442383 
	C758.486511,641.129822 755.630066,640.158508 754.931274,643.089844 
	C754.292053,645.771240 757.278564,645.735718 759.532776,646.961060 
z"/>
<path fill="#000000" opacity="1.000000" stroke="none" 
	d="
M720.508545,744.417847 
	C720.284546,743.425659 720.091736,742.752319 720.193176,742.126709 
	C720.858704,738.023499 724.533508,735.132385 727.732361,736.202148 
	C730.687561,737.190430 729.383240,739.415955 728.883301,741.136963 
	C727.645996,745.396362 724.986450,746.490662 720.508545,744.417847 
z"/>
<path fill="#000000" opacity="1.000000" stroke="none" 
	d="
M432.448425,489.669647 
	C433.765472,498.267975 432.393524,506.105835 428.855865,513.417114 
	C422.669250,526.202881 405.998291,529.265198 393.682617,520.109985 
	C379.867676,509.840210 373.269836,495.511353 370.688995,478.968506 
	C369.276703,469.916046 369.873047,461.020233 373.635590,452.571869 
	C379.652374,439.061829 392.638306,434.621979 405.434814,442.054535 
	C420.292694,450.684448 427.325745,464.810730 431.224487,480.844116 
	C431.887970,483.572571 432.022736,486.429596 432.448425,489.669647 
M424.540985,490.613678 
	C421.690002,487.982300 419.586334,490.163269 417.734711,491.937714 
	C416.196533,493.411835 414.991699,495.298462 413.893066,497.152740 
	C411.803406,500.679535 409.378754,501.867554 405.255981,500.043427 
	C400.487885,497.933777 395.293427,497.477692 390.062744,498.250824 
	C386.450989,498.784637 385.293335,500.516022 387.526825,503.680542 
	C392.063690,510.108643 397.713562,515.097534 405.546875,517.126282 
	C411.608124,518.696106 418.405243,515.768066 421.193604,510.190430 
	C424.148956,504.278625 425.695221,498.039795 424.540985,490.613678 
z"/>
<path fill="#000000" opacity="1.000000" stroke="none" 
	d="
M430.460968,327.144165 
	C437.938690,328.069153 445.477325,326.949921 451.658447,331.736572 
	C454.732361,334.117035 456.934753,337.088715 458.167389,340.891968 
	C459.758789,345.802216 463.173309,349.848419 464.946747,354.744049 
	C471.605438,373.125641 470.992828,391.032928 461.400818,408.219086 
	C449.079712,430.294830 424.991882,431.989716 409.578339,412.051117 
	C395.356323,393.653961 394.032196,363.060059 406.475433,343.223938 
	C412.017273,334.389557 419.692688,328.884064 430.460968,327.144165 
M415.127808,345.642517 
	C403.106232,360.507385 402.653168,387.201996 414.101685,404.401520 
	C417.948395,410.180573 423.186279,414.056824 429.793152,416.105469 
	C436.248047,418.107025 444.619537,415.304688 449.068054,409.443115 
	C441.478363,404.261932 437.900482,396.518555 436.042847,387.853790 
	C435.490814,385.279022 434.482880,382.577576 438.671112,381.122559 
	C441.863220,380.013611 441.129608,377.226196 438.679596,375.284363 
	C437.420502,374.286377 435.774994,373.836639 435.821716,371.637451 
	C435.985687,363.920013 444.083923,356.468384 451.976166,356.839935 
	C453.347931,356.904541 454.828033,358.089813 456.562378,356.250763 
	C452.639923,347.117920 446.609985,339.834930 436.688110,336.961151 
	C427.925842,334.423218 421.238525,338.769989 415.127808,345.642517 
z"/>
<path fill="#000000" opacity="1.000000" stroke="none" 
	d="
M332.808105,429.408081 
	C314.945160,416.859283 310.969818,398.885986 312.111145,379.032227 
	C312.581329,370.853027 314.984924,363.052429 318.852600,355.709167 
	C329.285950,335.900269 353.720825,327.772308 371.294220,353.476318 
	C383.825836,371.805878 383.880157,402.375885 368.669586,421.718048 
	C359.452454,433.438843 346.441559,436.338654 332.808105,429.408081 
M352.672760,423.328705 
	C355.607178,421.933044 358.886230,420.968597 360.360901,417.242584 
	C352.982574,411.646088 348.899780,404.054932 348.480255,395.089264 
	C348.254059,390.255981 349.937805,385.675415 349.190277,380.313049 
	C348.272583,373.730316 355.729889,367.745300 362.293945,366.820190 
	C364.068573,366.570038 365.881927,366.594818 368.154419,366.466492 
	C367.179413,361.322845 364.148682,357.850769 360.982635,354.509338 
	C347.123657,339.882568 334.070068,347.388123 326.794495,358.044281 
	C322.258057,364.688660 320.192780,372.277893 319.711517,380.118774 
	C318.788483,395.156158 322.075684,408.918579 333.950043,419.384247 
	C339.134644,423.953705 345.060059,425.957611 352.672760,423.328705 
z"/>
<path fill="#000000" opacity="1.000000" stroke="none" 
	d="
M452.992249,314.049438 
	C445.648682,310.651306 438.165649,309.016663 430.749176,307.107758 
	C427.014832,306.146545 421.748077,305.432068 423.014191,299.989044 
	C424.128662,295.197937 429.181061,295.206451 433.078033,295.906189 
	C446.799713,298.369873 458.700592,304.164368 466.865814,316.056702 
	C468.258392,318.084900 469.642303,320.149841 469.990967,323.924133 
	C464.443085,319.595978 459.036133,316.622375 452.992249,314.049438 
z"/>
<path fill="#000000" opacity="1.000000" stroke="none" 
	d="
M360.219177,319.287903 
	C354.816895,321.068115 349.726562,322.568420 344.672424,324.181976 
	C336.907501,326.661041 329.728882,330.359894 322.836945,335.348663 
	C325.876190,321.479523 344.628998,308.645966 356.932404,311.592804 
	C362.084412,312.826752 363.045837,314.812286 360.219177,319.287903 
z"/>
</svg>